<svg xmlns="http://www.w3.org/2000/svg" style="display:none"><symbol id="shape-close" viewBox="1233 133 22 30"><path d="M1244 147.083L1233.917 137l-.917.917L1243.083 148 1233 158.083l.917.917L1244 148.917 1254.083 159l.917-.917L1244.917 148 1255 137.917l-.917-.917L1244 147.083z" fill-rule="evenodd"/></symbol><symbol id="shape-linkedin" viewBox="0 0 23 23"><path d="M2.694 0c1.464 0 2.67 1.21 2.668 2.682-.003 1.54-1.282 2.7-2.686 2.668C1.25 5.38 0 4.19 0 2.672 0 1.2 1.212 0 2.694 0zM4.25 22.25H1.112a.736.736 0 0 1-.738-.736V8.134c0-.408.33-.737.738-.737H4.25c.406 0 .736.33.736.737v13.38c0 .408-.33.737-.737.737zm18.056-10.154a5.08 5.08 0 0 0-5.08-5.08h-.804a4.512 4.512 0 0 0-3.953 2.334.252.252 0 0 0-.043-.005V7.702a.307.307 0 0 0-.306-.306H8.21a.305.305 0 0 0-.306.306v14.244c0 .168.137.305.306.306h4a.305.305 0 0 0 .304-.305v-8.23c0-1.42 1.135-2.603 2.557-2.62a2.58 2.58 0 0 1 1.858.76c.468.467.758 1.114.758 1.828v8.263c0 .168.137.305.305.306H22c.17 0 .306-.136.306-.305v-9.854z" fill-rule="evenodd"/></symbol><symbol id="shape-next" viewBox="0 0 32 60"><path d="M1.56 59.414L.147 58 28.44 29.707.145 1.414 1.56 0l29.71 29.707" fill-rule="evenodd"/></symbol><symbol id="shape-prev" viewBox="0 0 33 61"><path d="M30.44.586L31.853 2 3.56 30.293l28.294 28.293L30.44 60 .73 30.293" fill-rule="evenodd"/></symbol></svg>