<svg width="23" height="23" viewBox="0 0 23 23" xmlns="http://www.w3.org/2000/svg"><path d="M2.694 0c1.464 0 2.67 1.21 2.668 2.682-.003 1.54-1.282 2.7-2.686 2.668C1.25 5.38 0 4.19 0 2.672 0 1.2 1.212 0 2.694 0zM4.25 22.25H1.112c-.408 0-.738-.328-.738-.736V8.134c0-.408.33-.737.738-.737H4.25c.406 0 .736.33.736.737v13.38c0 .408-.33.737-.737.737zm18.056-10.154c0-2.805-2.274-5.08-5.08-5.08h-.804c-1.534 0-2.89.767-3.706 1.937-.09.128-.17.26-.247.397-.027-.004-.042-.006-.043-.005V7.702c0-.168-.137-.306-.306-.306H8.21c-.17 0-.306.137-.306.306v14.244c0 .168.137.305.306.306h4c.167 0 .304-.136.304-.305v-8.23c0-1.42 1.135-2.603 2.557-2.62.725-.007 1.383.284 1.858.76.468.467.758 1.114.758 1.828v8.263c0 .168.137.305.305.306H22c.17 0 .306-.136.306-.305v-9.854z" fill-rule="evenodd"/></svg>
